<?xml version="1.0" encoding="utf-8"?>
<!-- Generator: Adobe Illustrator 19.2.1, SVG Export Plug-In . SVG Version: 6.00 Build 0)  -->
<svg version="1.1" id="Layer_1" xmlns="http://www.w3.org/2000/svg" xmlns:xlink="http://www.w3.org/1999/xlink" x="0px" y="0px"
	 width="30px" height="30px" viewBox="0 0 30 30" style="enable-background:new 0 0 30 30;" xml:space="preserve">
<style type="text/css">
	.st0{fill:#FFFFFF;}
</style>
<g>
	<g>
		<g>
			<path class="st0" d="M24.1,8.3V24H5.9V8.3H24.1 M25.1,7.3H4.9V25h20.3V7.3L25.1,7.3z"/>
			<rect x="7.2" y="15" class="st0" width="2.6" height="1"/>
			<rect x="20.2" y="15" class="st0" width="2.6" height="1"/>
			<rect x="15.8" y="15" class="st0" width="2.6" height="1"/>
			<rect x="11.5" y="15" class="st0" width="2.6" height="1"/>
			<rect x="7.2" y="18.2" class="st0" width="2.6" height="1"/>
			<rect x="20.2" y="18.2" class="st0" width="2.6" height="1"/>
			<rect x="15.8" y="18.2" class="st0" width="2.6" height="1"/>
			<rect x="11.5" y="18.2" class="st0" width="2.6" height="1"/>
			<rect x="7.2" y="21.4" class="st0" width="2.6" height="1"/>
			<rect x="20.2" y="21.4" class="st0" width="2.6" height="1"/>
			<rect x="15.8" y="21.4" class="st0" width="2.6" height="1"/>
			<rect x="11.5" y="21.4" class="st0" width="2.6" height="1"/>
			<g>
				<rect x="10.2" y="5" class="st0" width="1" height="4.8"/>
				<rect x="18.8" y="5" class="st0" width="1" height="4.8"/>
			</g>
		</g>
	</g>
</g>
</svg>
