<?xml version="1.0" encoding="utf-8"?>
<!-- Generator: Adobe Illustrator 19.2.1, SVG Export Plug-In . SVG Version: 6.00 Build 0)  -->
<svg version="1.1" id="Layer_1" xmlns="http://www.w3.org/2000/svg" xmlns:xlink="http://www.w3.org/1999/xlink" x="0px" y="0px"
	 width="86px" height="20px" viewBox="0 0 86 20" style="enable-background:new 0 0 86 20;" xml:space="preserve">
<style type="text/css">
	.st0{fill:#FFFFFF;}
</style>
<g>
	<path class="st0" d="M36.5,8.1h-1.4v-4c0-0.5-0.1-0.9-0.3-1.1c-0.2-0.2-0.5-0.4-0.9-0.4c-0.5,0-0.9,0.2-1.2,0.5
		c-0.2,0.3-0.4,0.9-0.4,1.7v3.2h-1.4V1.6h1.1l0.2,0.8h0.1c0.2-0.3,0.4-0.5,0.8-0.7c0.3-0.2,0.7-0.3,1.1-0.3c1,0,1.7,0.3,2,1h0.1
		c0.2-0.3,0.5-0.6,0.8-0.7c0.3-0.2,0.7-0.3,1.2-0.3c0.8,0,1.3,0.2,1.7,0.6c0.4,0.4,0.5,1,0.5,1.8v4.2h-1.4v-4c0-0.5-0.1-0.9-0.3-1.1
		c-0.2-0.2-0.5-0.4-0.9-0.4c-0.5,0-0.9,0.2-1.2,0.5c-0.2,0.3-0.4,0.8-0.4,1.5V8.1z"/>
	<path class="st0" d="M48.3,4.9c0,1.1-0.3,1.9-0.8,2.5c-0.5,0.6-1.3,0.9-2.3,0.9c-0.6,0-1.1-0.1-1.6-0.4c-0.5-0.3-0.8-0.7-1.1-1.2
		c-0.2-0.5-0.4-1.1-0.4-1.8c0-1,0.3-1.9,0.8-2.5c0.5-0.6,1.3-0.9,2.3-0.9c0.9,0,1.7,0.3,2.2,0.9C48,3,48.3,3.8,48.3,4.9 M43.5,4.9
		c0,1.5,0.6,2.2,1.7,2.2c1.1,0,1.6-0.7,1.6-2.2c0-1.5-0.6-2.2-1.7-2.2c-0.6,0-1,0.2-1.3,0.6C43.7,3.6,43.5,4.1,43.5,4.9"/>
	<path class="st0" d="M53.1,1.5c0.3,0,0.5,0,0.7,0.1l-0.1,1.3c-0.2,0-0.4-0.1-0.6-0.1c-0.5,0-1,0.2-1.3,0.5
		c-0.3,0.4-0.5,0.8-0.5,1.4v3.4h-1.4V1.6h1.1l0.2,1.1h0.1c0.2-0.4,0.5-0.7,0.8-0.9C52.3,1.6,52.7,1.5,53.1,1.5"/>
	<path class="st0" d="M57.4,7.1c0.3,0,0.7-0.1,1-0.2v1c-0.2,0.1-0.3,0.1-0.6,0.2c-0.2,0-0.5,0.1-0.7,0.1c-1.3,0-2-0.7-2-2.1V2.7
		h-0.9V2.1l0.9-0.5l0.5-1.4h0.8v1.4h1.8v1h-1.8v3.5c0,0.3,0.1,0.6,0.2,0.7C56.9,7,57.1,7.1,57.4,7.1"/>
	<path class="st0" d="M65.2,1.6v0.8l-1.1,0.2c0.1,0.1,0.2,0.3,0.3,0.5c0.1,0.2,0.1,0.4,0.1,0.6c0,0.7-0.2,1.2-0.7,1.6
		c-0.5,0.4-1.1,0.6-1.9,0.6c-0.2,0-0.4,0-0.6,0C61,6,60.8,6.2,60.8,6.5c0,0.1,0.1,0.3,0.2,0.3c0.1,0.1,0.4,0.1,0.8,0.1h1.1
		c0.7,0,1.3,0.2,1.6,0.5c0.4,0.3,0.6,0.7,0.6,1.3c0,0.7-0.3,1.3-0.9,1.7c-0.6,0.4-1.5,0.6-2.6,0.6c-0.9,0-1.6-0.2-2-0.5
		c-0.5-0.3-0.7-0.8-0.7-1.3c0-0.4,0.1-0.7,0.4-1c0.3-0.3,0.6-0.5,1.1-0.6c-0.2-0.1-0.3-0.2-0.5-0.4c-0.1-0.2-0.2-0.4-0.2-0.5
		c0-0.2,0.1-0.4,0.2-0.6c0.1-0.2,0.3-0.3,0.6-0.5c-0.3-0.1-0.6-0.4-0.8-0.7s-0.3-0.7-0.3-1.1c0-0.7,0.2-1.2,0.7-1.6
		c0.4-0.4,1.1-0.6,1.9-0.6c0.2,0,0.4,0,0.6,0c0.2,0,0.4,0.1,0.5,0.1H65.2z M60.1,9.1c0,0.3,0.1,0.5,0.4,0.7s0.6,0.2,1.1,0.2
		c0.7,0,1.3-0.1,1.7-0.3c0.4-0.2,0.6-0.5,0.6-0.9c0-0.3-0.1-0.5-0.3-0.6c-0.2-0.1-0.6-0.2-1.1-0.2h-1c-0.4,0-0.7,0.1-0.9,0.3
		S60.1,8.8,60.1,9.1 M60.7,3.7c0,0.4,0.1,0.7,0.3,0.9C61.2,4.9,61.5,5,61.9,5c0.8,0,1.2-0.4,1.2-1.3c0-0.4-0.1-0.7-0.3-1
		c-0.2-0.2-0.5-0.3-0.9-0.3c-0.4,0-0.7,0.1-0.9,0.3C60.8,3,60.7,3.3,60.7,3.7"/>
	<path class="st0" d="M70.4,8.1l-0.3-0.9h0c-0.3,0.4-0.6,0.7-0.9,0.8c-0.3,0.1-0.7,0.2-1.2,0.2c-0.6,0-1.1-0.2-1.5-0.5
		c-0.4-0.3-0.5-0.8-0.5-1.5c0-0.7,0.2-1.2,0.7-1.5c0.5-0.3,1.3-0.5,2.3-0.6l1.1,0V3.8c0-0.4-0.1-0.7-0.3-0.9
		c-0.2-0.2-0.5-0.3-0.9-0.3c-0.3,0-0.7,0-1,0.1c-0.3,0.1-0.6,0.2-0.9,0.3l-0.4-1c0.4-0.2,0.7-0.3,1.2-0.4c0.4-0.1,0.8-0.1,1.2-0.1
		c0.8,0,1.4,0.2,1.9,0.5c0.4,0.4,0.6,0.9,0.6,1.7v4.4H70.4z M68.4,7.2c0.5,0,0.9-0.1,1.2-0.4C69.9,6.5,70,6.1,70,5.6V5l-0.8,0
		c-0.6,0-1.1,0.1-1.4,0.3c-0.3,0.2-0.4,0.5-0.4,0.9c0,0.3,0.1,0.5,0.3,0.7C67.8,7.1,68,7.2,68.4,7.2"/>
	<path class="st0" d="M78.8,1.6v0.8l-1.1,0.2c0.1,0.1,0.2,0.3,0.3,0.5C78,3.3,78,3.5,78,3.7c0,0.7-0.2,1.2-0.7,1.6
		c-0.5,0.4-1.1,0.6-1.9,0.6c-0.2,0-0.4,0-0.6,0c-0.3,0.2-0.4,0.4-0.4,0.6c0,0.1,0.1,0.3,0.2,0.3c0.1,0.1,0.4,0.1,0.8,0.1h1.1
		c0.7,0,1.3,0.2,1.6,0.5c0.4,0.3,0.6,0.7,0.6,1.3c0,0.7-0.3,1.3-0.9,1.7c-0.6,0.4-1.5,0.6-2.6,0.6c-0.9,0-1.6-0.2-2-0.5
		c-0.5-0.3-0.7-0.8-0.7-1.3c0-0.4,0.1-0.7,0.4-1c0.3-0.3,0.6-0.5,1.1-0.6c-0.2-0.1-0.3-0.2-0.5-0.4c-0.1-0.2-0.2-0.4-0.2-0.5
		c0-0.2,0.1-0.4,0.2-0.6c0.1-0.2,0.3-0.3,0.6-0.5c-0.3-0.1-0.6-0.4-0.8-0.7S73,4.2,73,3.7c0-0.7,0.2-1.2,0.7-1.6
		c0.4-0.4,1.1-0.6,1.9-0.6c0.2,0,0.4,0,0.6,0c0.2,0,0.4,0.1,0.5,0.1H78.8z M73.7,9.1c0,0.3,0.1,0.5,0.4,0.7s0.6,0.2,1.1,0.2
		c0.7,0,1.3-0.1,1.7-0.3c0.4-0.2,0.6-0.5,0.6-0.9c0-0.3-0.1-0.5-0.3-0.6C77,8.1,76.6,8.1,76,8.1h-1c-0.4,0-0.7,0.1-0.9,0.3
		C73.8,8.5,73.7,8.8,73.7,9.1 M74.3,3.7c0,0.4,0.1,0.7,0.3,0.9C74.8,4.9,75.1,5,75.5,5c0.8,0,1.2-0.4,1.2-1.3c0-0.4-0.1-0.7-0.3-1
		c-0.2-0.2-0.5-0.3-0.9-0.3c-0.4,0-0.7,0.1-0.9,0.3S74.3,3.3,74.3,3.7"/>
	<path class="st0" d="M82.8,8.2c-1,0-1.8-0.3-2.4-0.9c-0.6-0.6-0.9-1.4-0.9-2.4c0-1.1,0.3-1.9,0.8-2.5c0.5-0.6,1.3-0.9,2.2-0.9
		c0.9,0,1.5,0.3,2,0.8c0.5,0.5,0.7,1.2,0.7,2.1v0.7H81c0,0.6,0.2,1.1,0.5,1.4c0.3,0.3,0.8,0.5,1.4,0.5c0.4,0,0.7,0,1.1-0.1
		C84.3,7,84.6,6.8,85,6.7v1.1c-0.3,0.2-0.7,0.3-1,0.3C83.7,8.2,83.3,8.2,82.8,8.2 M82.6,2.6c-0.4,0-0.8,0.1-1.1,0.4
		c-0.3,0.3-0.4,0.7-0.5,1.2H84c0-0.5-0.1-0.9-0.4-1.2S83,2.6,82.6,2.6"/>
	<path class="st0" d="M34.3,14.6h-1.6V20h-1.4v-5.4h-1.1v-0.6l1.1-0.4v-0.4c0-0.8,0.2-1.3,0.5-1.7s0.9-0.6,1.6-0.6
		c0.5,0,1,0.1,1.4,0.2l-0.4,1c-0.3-0.1-0.7-0.2-1-0.2c-0.3,0-0.5,0.1-0.7,0.3s-0.2,0.5-0.2,0.9v0.4h1.6V14.6z M35.3,11.8
		c0-0.2,0.1-0.4,0.2-0.6c0.1-0.1,0.3-0.2,0.6-0.2c0.2,0,0.4,0.1,0.6,0.2c0.1,0.1,0.2,0.3,0.2,0.6c0,0.2-0.1,0.4-0.2,0.6
		c-0.1,0.1-0.3,0.2-0.6,0.2c-0.3,0-0.4-0.1-0.6-0.2C35.4,12.2,35.3,12,35.3,11.8 M36.8,20h-1.4v-6.5h1.4V20z"/>
	<path class="st0" d="M42,13.4c0.3,0,0.5,0,0.7,0.1l-0.1,1.3c-0.2,0-0.4-0.1-0.6-0.1c-0.5,0-1,0.2-1.3,0.5c-0.3,0.4-0.5,0.8-0.5,1.4
		V20h-1.4v-6.5h1.1l0.2,1.1h0.1c0.2-0.4,0.5-0.7,0.8-0.9C41.3,13.5,41.6,13.4,42,13.4"/>
	<path class="st0" d="M49.4,20H48v-4c0-0.5-0.1-0.9-0.3-1.1c-0.2-0.2-0.5-0.4-0.9-0.4c-0.5,0-0.9,0.2-1.2,0.5
		c-0.2,0.3-0.4,0.9-0.4,1.7V20h-1.4v-6.5H45l0.2,0.8h0.1c0.2-0.3,0.4-0.5,0.8-0.7c0.3-0.2,0.7-0.3,1.1-0.3c1,0,1.7,0.3,2,1h0.1
		c0.2-0.3,0.5-0.6,0.8-0.7c0.3-0.2,0.7-0.3,1.2-0.3c0.8,0,1.3,0.2,1.7,0.6c0.4,0.4,0.5,1,0.5,1.8V20h-1.4v-4c0-0.5-0.1-0.9-0.3-1.1
		c-0.2-0.2-0.5-0.4-0.9-0.4c-0.5,0-0.9,0.2-1.2,0.5c-0.2,0.3-0.4,0.8-0.4,1.5V20z"/>
	<polygon class="st0" points="6,11.5 5.3,11.5 5.3,12.3 3.8,10.9 0,14.5 1.1,14.5 1.1,20 6.6,20 6.6,14.5 7.7,14.5 6,13 	"/>
	<polygon class="st0" points="14.6,6 13.9,6 13.9,6.9 12.4,5.5 8.6,9 9.7,9 9.7,14.5 9.7,20 15.2,20 15.2,14.5 15.2,9 16.3,9 
		14.6,7.5 	"/>
	<polygon class="st0" points="23.2,2 23.2,0.5 22.5,0.5 22.5,1.4 21,0 17.2,3.6 18.3,3.6 18.3,9 18.3,14.5 18.3,20 23.7,20 
		23.7,14.5 23.7,9 23.7,3.6 24.9,3.6 	"/>
</g>
</svg>
