<?xml version="1.0" encoding="utf-8"?>
<!-- Generator: Adobe Illustrator 19.2.1, SVG Export Plug-In . SVG Version: 6.00 Build 0)  -->
<svg version="1.1" id="Layer_1" xmlns="http://www.w3.org/2000/svg" xmlns:xlink="http://www.w3.org/1999/xlink" x="0px" y="0px"
	 width="132px" height="30px" viewBox="0 0 132 30" style="enable-background:new 0 0 132 30;" xml:space="preserve">
<style type="text/css">
	.st0{fill:#343E48;}
	.st1{fill:#005DA6;}
</style>
<g>
	<path class="st0" d="M48.2,25.7l-0.4-1.1h-1.5l-0.4,1.1h-0.7l1.5-4h0.7l1.5,4H48.2z M47.6,24l-0.4-1.1c0-0.1-0.1-0.2-0.1-0.3
		c0-0.2-0.1-0.3-0.1-0.3c0,0.2-0.1,0.5-0.2,0.7l-0.4,1H47.6z"/>
	<polygon class="st0" points="53.9,25.7 53.3,25.7 53.3,23.9 51.4,23.9 51.4,25.7 50.8,25.7 50.8,21.7 51.4,21.7 51.4,23.3 
		53.3,23.3 53.3,21.7 53.9,21.7 	"/>
	<path class="st0" d="M54.8,21.9c0-0.1,0-0.2,0.1-0.3c0.1-0.1,0.2-0.1,0.3-0.1c0.1,0,0.2,0,0.3,0.1c0.1,0.1,0.1,0.1,0.1,0.3
		c0,0.1,0,0.2-0.1,0.3s-0.1,0.1-0.3,0.1c-0.1,0-0.2,0-0.3-0.1C54.9,22.1,54.8,22,54.8,21.9 M55.5,25.7h-0.6v-3h0.6V25.7z"/>
	<path class="st0" d="M57.5,25.2c0.2,0,0.3,0,0.5-0.1v0.5c-0.1,0-0.2,0.1-0.3,0.1c-0.1,0-0.2,0-0.3,0c-0.6,0-0.9-0.3-0.9-0.9v-1.6
		h-0.4v-0.3l0.4-0.2l0.2-0.6h0.4v0.7h0.8v0.5h-0.8v1.6c0,0.2,0,0.3,0.1,0.3C57.3,25.2,57.4,25.2,57.5,25.2"/>
	<path class="st0" d="M60.4,25.7l-0.1-0.4h0c-0.1,0.2-0.3,0.3-0.4,0.4c-0.1,0.1-0.3,0.1-0.6,0.1c-0.3,0-0.5-0.1-0.7-0.2
		c-0.2-0.2-0.2-0.4-0.2-0.7c0-0.3,0.1-0.5,0.3-0.7c0.2-0.2,0.6-0.2,1-0.3l0.5,0v-0.2c0-0.2,0-0.3-0.1-0.4c-0.1-0.1-0.2-0.1-0.4-0.1
		c-0.2,0-0.3,0-0.4,0.1c-0.1,0-0.3,0.1-0.4,0.2l-0.2-0.5c0.2-0.1,0.3-0.1,0.5-0.2c0.2,0,0.4-0.1,0.5-0.1c0.4,0,0.7,0.1,0.9,0.2
		s0.3,0.4,0.3,0.8v2H60.4z M59.5,25.2c0.2,0,0.4-0.1,0.6-0.2c0.1-0.1,0.2-0.3,0.2-0.5v-0.3l-0.4,0c-0.3,0-0.5,0.1-0.7,0.1
		c-0.1,0.1-0.2,0.2-0.2,0.4c0,0.1,0,0.2,0.1,0.3C59.2,25.2,59.3,25.2,59.5,25.2"/>
	<path class="st0" d="M62.8,25.7c-0.5,0-0.8-0.1-1-0.4c-0.2-0.3-0.4-0.6-0.4-1.1c0-0.5,0.1-0.9,0.4-1.2c0.2-0.3,0.6-0.4,1.1-0.4
		c0.3,0,0.6,0.1,0.8,0.2l-0.2,0.5c-0.3-0.1-0.5-0.2-0.7-0.2c-0.5,0-0.8,0.3-0.8,1c0,0.3,0.1,0.6,0.2,0.8c0.1,0.2,0.3,0.3,0.6,0.3
		c0.3,0,0.5-0.1,0.8-0.2v0.6c-0.1,0.1-0.2,0.1-0.4,0.1C63.1,25.7,62.9,25.7,62.8,25.7"/>
	<path class="st0" d="M66.8,25.7h-0.6v-1.8c0-0.2,0-0.4-0.1-0.5c-0.1-0.1-0.2-0.2-0.4-0.2c-0.3,0-0.5,0.1-0.6,0.2s-0.2,0.4-0.2,0.8
		v1.5h-0.6v-4.2h0.6v1.1c0,0.2,0,0.4,0,0.5h0c0.1-0.1,0.2-0.3,0.4-0.3c0.2-0.1,0.3-0.1,0.5-0.1c0.7,0,1.1,0.4,1.1,1.1V25.7z"/>
	<path class="st0" d="M67.5,21.9c0-0.1,0-0.2,0.1-0.3c0.1-0.1,0.1-0.1,0.3-0.1c0.1,0,0.2,0,0.3,0.1c0.1,0.1,0.1,0.1,0.1,0.3
		c0,0.1,0,0.2-0.1,0.3s-0.1,0.1-0.3,0.1c-0.1,0-0.2,0-0.3-0.1C67.6,22.1,67.5,22,67.5,21.9 M68.2,25.7h-0.6v-3h0.6V25.7z"/>
	<path class="st0" d="M73.8,23.6c0,0.7-0.2,1.1-0.5,1.5c-0.4,0.3-0.9,0.5-1.6,0.5h-1.1v-3.9h1.2c0.6,0,1.1,0.2,1.5,0.5
		C73.6,22.6,73.8,23,73.8,23.6 M73.1,23.7c0-0.9-0.4-1.4-1.3-1.4h-0.6v2.9h0.5C72.7,25.1,73.1,24.6,73.1,23.7"/>
	<path class="st0" d="M76.3,25.7l-0.1-0.4h0c-0.1,0.2-0.3,0.3-0.4,0.4c-0.1,0.1-0.3,0.1-0.6,0.1c-0.3,0-0.5-0.1-0.7-0.2
		c-0.2-0.2-0.2-0.4-0.2-0.7c0-0.3,0.1-0.5,0.3-0.7c0.2-0.2,0.6-0.2,1-0.3l0.5,0v-0.2c0-0.2,0-0.3-0.1-0.4c-0.1-0.1-0.2-0.1-0.4-0.1
		c-0.2,0-0.3,0-0.4,0.1c-0.1,0-0.3,0.1-0.4,0.2l-0.2-0.5c0.2-0.1,0.3-0.1,0.5-0.2c0.2,0,0.4-0.1,0.5-0.1c0.4,0,0.7,0.1,0.9,0.2
		s0.3,0.4,0.3,0.8v2H76.3z M75.4,25.2c0.2,0,0.4-0.1,0.6-0.2c0.1-0.1,0.2-0.3,0.2-0.5v-0.3l-0.4,0c-0.3,0-0.5,0.1-0.7,0.1
		c-0.1,0.1-0.2,0.2-0.2,0.4c0,0.1,0,0.2,0.1,0.3C75.1,25.2,75.2,25.2,75.4,25.2"/>
	<path class="st0" d="M78.7,25.2c0.2,0,0.3,0,0.5-0.1v0.5c-0.1,0-0.2,0.1-0.3,0.1c-0.1,0-0.2,0-0.3,0c-0.6,0-0.9-0.3-0.9-0.9v-1.6
		h-0.4v-0.3l0.4-0.2l0.2-0.6h0.4v0.7h0.8v0.5h-0.8v1.6c0,0.2,0,0.3,0.1,0.3C78.5,25.2,78.6,25.2,78.7,25.2"/>
	<path class="st0" d="M81.6,25.7l-0.1-0.4h0c-0.1,0.2-0.3,0.3-0.4,0.4c-0.1,0.1-0.3,0.1-0.6,0.1c-0.3,0-0.5-0.1-0.7-0.2
		c-0.2-0.2-0.2-0.4-0.2-0.7c0-0.3,0.1-0.5,0.3-0.7c0.2-0.2,0.6-0.2,1-0.3l0.5,0v-0.2c0-0.2,0-0.3-0.1-0.4c-0.1-0.1-0.2-0.1-0.4-0.1
		c-0.2,0-0.3,0-0.4,0.1c-0.1,0-0.3,0.1-0.4,0.2l-0.2-0.5c0.2-0.1,0.3-0.1,0.5-0.2c0.2,0,0.4-0.1,0.5-0.1c0.4,0,0.7,0.1,0.9,0.2
		s0.3,0.4,0.3,0.8v2H81.6z M80.7,25.2c0.2,0,0.4-0.1,0.6-0.2c0.1-0.1,0.2-0.3,0.2-0.5v-0.3l-0.4,0c-0.3,0-0.5,0.1-0.7,0.1
		c-0.1,0.1-0.2,0.2-0.2,0.4c0,0.1,0,0.2,0.1,0.3C80.4,25.2,80.5,25.2,80.7,25.2"/>
	<path class="st0" d="M86.6,24.6c0,0.3-0.1,0.6-0.4,0.8c-0.3,0.2-0.6,0.3-1,0.3c-0.4,0-0.8-0.1-1.1-0.2v-0.6
		c0.2,0.1,0.4,0.2,0.6,0.2c0.2,0,0.4,0.1,0.6,0.1c0.3,0,0.4,0,0.6-0.1c0.1-0.1,0.2-0.2,0.2-0.4c0-0.1-0.1-0.3-0.2-0.4
		c-0.1-0.1-0.3-0.2-0.7-0.4c-0.4-0.1-0.6-0.3-0.8-0.5c-0.1-0.2-0.2-0.4-0.2-0.7c0-0.3,0.1-0.6,0.3-0.8c0.2-0.2,0.5-0.3,0.9-0.3
		c0.4,0,0.8,0.1,1.1,0.2l-0.2,0.5c-0.3-0.1-0.7-0.2-0.9-0.2c-0.2,0-0.4,0-0.5,0.1c-0.1,0.1-0.2,0.2-0.2,0.4c0,0.1,0,0.2,0.1,0.3
		c0,0.1,0.1,0.1,0.2,0.2c0.1,0.1,0.3,0.2,0.5,0.3c0.3,0.1,0.5,0.2,0.6,0.3c0.1,0.1,0.2,0.2,0.3,0.4C86.6,24.2,86.6,24.4,86.6,24.6"
		/>
	<path class="st0" d="M86.8,22.7h0.7l0.6,1.7c0.1,0.2,0.2,0.5,0.2,0.7h0c0-0.1,0-0.2,0.1-0.4c0-0.1,0.3-0.8,0.7-2h0.7L88.5,26
		c-0.2,0.6-0.6,0.9-1.2,0.9c-0.1,0-0.3,0-0.4,0v-0.5c0.1,0,0.2,0,0.3,0c0.3,0,0.5-0.2,0.6-0.5l0.1-0.3L86.8,22.7z"/>
	<path class="st0" d="M92.3,24.8c0,0.3-0.1,0.5-0.3,0.7c-0.2,0.2-0.5,0.2-0.9,0.2s-0.7-0.1-1-0.2V25c0.3,0.2,0.7,0.2,1,0.2
		c0.4,0,0.6-0.1,0.6-0.4c0-0.1,0-0.1-0.1-0.2c0-0.1-0.1-0.1-0.2-0.2s-0.2-0.1-0.4-0.2c-0.3-0.1-0.6-0.3-0.7-0.4
		c-0.1-0.1-0.2-0.3-0.2-0.5c0-0.3,0.1-0.5,0.3-0.6c0.2-0.1,0.5-0.2,0.8-0.2c0.4,0,0.7,0.1,1,0.2L92,23.3c-0.3-0.1-0.6-0.2-0.8-0.2
		c-0.3,0-0.5,0.1-0.5,0.3c0,0.1,0,0.2,0.1,0.2c0.1,0.1,0.3,0.2,0.6,0.3c0.2,0.1,0.4,0.2,0.5,0.3c0.1,0.1,0.2,0.2,0.2,0.3
		C92.2,24.5,92.3,24.7,92.3,24.8"/>
	<path class="st0" d="M94.1,25.2c0.2,0,0.3,0,0.5-0.1v0.5c-0.1,0-0.2,0.1-0.3,0.1c-0.1,0-0.2,0-0.3,0c-0.6,0-0.9-0.3-0.9-0.9v-1.6
		h-0.4v-0.3l0.4-0.2l0.2-0.6h0.4v0.7h0.8v0.5h-0.8v1.6c0,0.2,0,0.3,0.1,0.3C93.8,25.2,93.9,25.2,94.1,25.2"/>
	<path class="st0" d="M96.4,25.7c-0.5,0-0.8-0.1-1.1-0.4c-0.3-0.3-0.4-0.6-0.4-1.1c0-0.5,0.1-0.9,0.4-1.1c0.2-0.3,0.6-0.4,1-0.4
		c0.4,0,0.7,0.1,0.9,0.4c0.2,0.2,0.3,0.6,0.3,1v0.3h-2c0,0.3,0.1,0.5,0.2,0.7s0.4,0.2,0.6,0.2c0.2,0,0.3,0,0.5,0s0.3-0.1,0.5-0.2
		v0.5c-0.2,0.1-0.3,0.1-0.5,0.2C96.8,25.7,96.6,25.7,96.4,25.7 M96.3,23.1c-0.2,0-0.4,0.1-0.5,0.2c-0.1,0.1-0.2,0.3-0.2,0.6h1.4
		c0-0.2-0.1-0.4-0.2-0.6C96.7,23.2,96.5,23.1,96.3,23.1"/>
	<path class="st0" d="M100.7,25.7h-0.6v-1.8c0-0.2,0-0.4-0.1-0.5c-0.1-0.1-0.2-0.2-0.4-0.2c-0.2,0-0.4,0.1-0.5,0.2s-0.2,0.4-0.2,0.8
		v1.5h-0.6v-3h0.5l0.1,0.4h0c0.1-0.1,0.2-0.3,0.4-0.3c0.2-0.1,0.3-0.1,0.5-0.1c0.5,0,0.8,0.2,0.9,0.5h0c0.1-0.1,0.2-0.3,0.4-0.3
		s0.3-0.1,0.5-0.1c0.4,0,0.6,0.1,0.8,0.3c0.2,0.2,0.2,0.5,0.2,0.8v1.9h-0.6v-1.8c0-0.2,0-0.4-0.1-0.5s-0.2-0.2-0.4-0.2
		c-0.2,0-0.4,0.1-0.5,0.2s-0.2,0.4-0.2,0.7V25.7z"/>
	<path class="st0" d="M105.3,24.8c0,0.3-0.1,0.5-0.3,0.7c-0.2,0.2-0.5,0.2-0.9,0.2s-0.7-0.1-1-0.2V25c0.3,0.2,0.7,0.2,1,0.2
		c0.4,0,0.6-0.1,0.6-0.4c0-0.1,0-0.1-0.1-0.2c0-0.1-0.1-0.1-0.2-0.2s-0.2-0.1-0.4-0.2c-0.3-0.1-0.6-0.3-0.7-0.4
		c-0.1-0.1-0.2-0.3-0.2-0.5c0-0.3,0.1-0.5,0.3-0.6c0.2-0.1,0.5-0.2,0.8-0.2c0.4,0,0.7,0.1,1,0.2l-0.2,0.5c-0.3-0.1-0.6-0.2-0.8-0.2
		c-0.3,0-0.5,0.1-0.5,0.3c0,0.1,0,0.2,0.1,0.2c0.1,0.1,0.3,0.2,0.6,0.3c0.2,0.1,0.4,0.2,0.5,0.3c0.1,0.1,0.2,0.2,0.2,0.3
		C105.3,24.5,105.3,24.7,105.3,24.8"/>
	<path class="st0" d="M109.1,22.2c-0.4,0-0.7,0.1-0.9,0.4c-0.2,0.3-0.3,0.6-0.3,1.1c0,0.5,0.1,0.8,0.3,1.1c0.2,0.2,0.5,0.4,0.9,0.4
		c0.2,0,0.3,0,0.5,0s0.3-0.1,0.5-0.1v0.6c-0.3,0.1-0.7,0.2-1.1,0.2c-0.6,0-1-0.2-1.3-0.5c-0.3-0.3-0.5-0.8-0.5-1.5
		c0-0.4,0.1-0.8,0.2-1.1c0.1-0.3,0.4-0.5,0.7-0.7c0.3-0.2,0.6-0.2,1-0.2c0.4,0,0.8,0.1,1.1,0.3l-0.2,0.5c-0.1-0.1-0.3-0.1-0.4-0.2
		C109.4,22.2,109.3,22.2,109.1,22.2"/>
	<path class="st0" d="M113.3,24.2c0,0.5-0.1,0.9-0.4,1.1c-0.2,0.3-0.6,0.4-1,0.4c-0.3,0-0.5-0.1-0.7-0.2c-0.2-0.1-0.4-0.3-0.5-0.5
		s-0.2-0.5-0.2-0.8c0-0.5,0.1-0.9,0.4-1.1c0.2-0.3,0.6-0.4,1-0.4c0.4,0,0.8,0.1,1,0.4C113.1,23.3,113.3,23.7,113.3,24.2 M111.1,24.2
		c0,0.7,0.3,1,0.8,1c0.5,0,0.8-0.3,0.8-1c0-0.7-0.3-1-0.8-1c-0.3,0-0.5,0.1-0.6,0.3S111.1,23.8,111.1,24.2"/>
	<path class="st0" d="M116.3,25.7h-0.6v-1.8c0-0.2,0-0.4-0.1-0.5c-0.1-0.1-0.2-0.2-0.4-0.2c-0.2,0-0.4,0.1-0.5,0.2s-0.2,0.4-0.2,0.8
		v1.5h-0.6v-3h0.5l0.1,0.4h0c0.1-0.1,0.2-0.3,0.4-0.3c0.2-0.1,0.3-0.1,0.5-0.1c0.5,0,0.8,0.2,0.9,0.5h0c0.1-0.1,0.2-0.3,0.4-0.3
		s0.3-0.1,0.5-0.1c0.4,0,0.6,0.1,0.8,0.3c0.2,0.2,0.2,0.5,0.2,0.8v1.9h-0.6v-1.8c0-0.2,0-0.4-0.1-0.5s-0.2-0.2-0.4-0.2
		c-0.2,0-0.4,0.1-0.5,0.2s-0.2,0.4-0.2,0.7V25.7z"/>
	<path class="st0" d="M120.4,25.7c-0.4,0-0.7-0.1-0.9-0.4h0c0,0.3,0,0.4,0,0.5V27h-0.6v-4.3h0.5c0,0.1,0,0.2,0.1,0.4h0
		c0.2-0.3,0.5-0.5,0.9-0.5c0.4,0,0.7,0.1,0.9,0.4c0.2,0.3,0.3,0.6,0.3,1.1s-0.1,0.9-0.3,1.1C121.1,25.6,120.8,25.7,120.4,25.7
		 M120.3,23.1c-0.3,0-0.4,0.1-0.6,0.2c-0.1,0.1-0.2,0.4-0.2,0.7v0.1c0,0.4,0.1,0.6,0.2,0.8c0.1,0.2,0.3,0.2,0.6,0.2
		c0.2,0,0.4-0.1,0.5-0.3c0.1-0.2,0.2-0.4,0.2-0.8c0-0.3-0.1-0.6-0.2-0.8C120.7,23.2,120.5,23.1,120.3,23.1"/>
	<path class="st0" d="M124,25.7l-0.1-0.4h0c-0.1,0.2-0.3,0.3-0.4,0.4c-0.1,0.1-0.3,0.1-0.6,0.1c-0.3,0-0.5-0.1-0.7-0.2
		c-0.2-0.2-0.2-0.4-0.2-0.7c0-0.3,0.1-0.5,0.3-0.7c0.2-0.2,0.6-0.2,1-0.3l0.5,0v-0.2c0-0.2,0-0.3-0.1-0.4c-0.1-0.1-0.2-0.1-0.4-0.1
		c-0.2,0-0.3,0-0.4,0.1c-0.1,0-0.3,0.1-0.4,0.2l-0.2-0.5c0.2-0.1,0.3-0.1,0.5-0.2c0.2,0,0.4-0.1,0.5-0.1c0.4,0,0.7,0.1,0.9,0.2
		s0.3,0.4,0.3,0.8v2H124z M123.1,25.2c0.2,0,0.4-0.1,0.6-0.2c0.1-0.1,0.2-0.3,0.2-0.5v-0.3l-0.4,0c-0.3,0-0.5,0.1-0.7,0.1
		c-0.1,0.1-0.2,0.2-0.2,0.4c0,0.1,0,0.2,0.1,0.3C122.8,25.2,122.9,25.2,123.1,25.2"/>
	<path class="st0" d="M127.7,25.7h-0.6v-1.8c0-0.2,0-0.4-0.1-0.5c-0.1-0.1-0.2-0.2-0.4-0.2c-0.3,0-0.5,0.1-0.6,0.2
		c-0.1,0.2-0.2,0.4-0.2,0.8v1.5h-0.6v-3h0.5l0.1,0.4h0c0.1-0.1,0.2-0.3,0.4-0.3s0.3-0.1,0.6-0.1c0.7,0,1.1,0.4,1.1,1.1V25.7z"/>
	<path class="st0" d="M128.1,22.7h0.7l0.6,1.7c0.1,0.2,0.2,0.5,0.2,0.7h0c0-0.1,0-0.2,0.1-0.4c0-0.1,0.3-0.8,0.7-2h0.7l-1.3,3.4
		c-0.2,0.6-0.6,0.9-1.2,0.9c-0.1,0-0.3,0-0.4,0v-0.5c0.1,0,0.2,0,0.3,0c0.3,0,0.5-0.2,0.6-0.5l0.1-0.3L128.1,22.7z"/>
	<path class="st0" d="M117.6,9.6c0.7,0,1.3,0.6,1.3,1.3c0,0.7-0.6,1.3-1.3,1.3c-0.7,0-1.3-0.6-1.3-1.3
		C116.3,10.2,116.9,9.6,117.6,9.6L117.6,9.6z M117.6,9.8c-0.6,0-1.1,0.5-1.1,1.1c0,0.6,0.5,1.1,1.1,1.1c0.6,0,1.1-0.5,1.1-1.1
		C118.7,10.3,118.2,9.8,117.6,9.8L117.6,9.8z M117.4,11.7h-0.2v-1.5c0.1,0,0.2,0,0.4,0c0.2,0,0.4,0,0.5,0.1c0.1,0.1,0.1,0.2,0.1,0.3
		c0,0.2-0.1,0.3-0.3,0.4v0c0.1,0,0.2,0.1,0.2,0.4c0,0.2,0.1,0.3,0.1,0.4h-0.2c0,0-0.1-0.2-0.1-0.4c0-0.2-0.1-0.3-0.3-0.3h-0.2V11.7z
		 M117.4,10.8h0.2c0.2,0,0.4-0.1,0.4-0.3c0-0.1-0.1-0.3-0.4-0.3c-0.1,0-0.1,0-0.2,0V10.8z"/>
	<path class="st0" d="M44,19.3c-1.5,0-2.7-0.8-3.4-2v8.3h-2.4V8.9h2.4v1.7c0.7-1.2,1.9-2,3.4-2c3,0,4.9,2.5,4.9,5.3
		C48.9,16.7,47,19.3,44,19.3 M43.5,10.7c-1.7,0-2.9,1.5-2.9,3.2c0,1.8,1.1,3.3,2.9,3.3c1.7,0,2.9-1.5,2.9-3.2
		C46.5,12.2,45.3,10.7,43.5,10.7"/>
	<path class="st0" d="M55.5,8.6c3.3,0,5,2.5,5,5.3c0,0.1,0,0.4,0,0.6h-7.8c0,1.8,1.4,2.9,3.2,2.9c1.3,0,2.3-0.6,3.1-1.3l1.2,1.3
		c-1,0.9-2.3,1.8-4.7,1.8c-3.6,0-5.4-2.6-5.4-5.3C50.3,11.2,52.2,8.6,55.5,8.6 M52.8,13.1h5.5c-0.1-1.5-1.3-2.8-2.8-2.8
		C54,10.3,52.9,11.6,52.8,13.1"/>
	<path class="st0" d="M64.8,18.9h-2.4v-10h2.4v1.4c0.5-0.9,1.6-1.7,3-1.7c3,0,4.2,1.9,4.2,4.8v5.4h-2.4v-5.4c0-2-0.9-2.9-2.3-2.9
		c-1.3,0-2.3,0.9-2.4,2.8V18.9z"/>
	<path class="st0" d="M74.8,12.9v-2h-1.4v-2h1.4V5.5h2.4v3.4h2.1v2h-2.1v1.9c0,3.2,0.1,4.2,1.3,4.2c0.2,0,0.5-0.1,0.7-0.1l0.3,1.8
		c-0.7,0.2-1.2,0.4-1.7,0.4C74.8,19.2,74.8,17,74.8,12.9"/>
	<path class="st0" d="M85.7,8.6c1.5,0,2.7,0.8,3.4,2V8.9h2.4v10h-2.4v-1.6c-0.7,1.2-1.9,2-3.4,2c-3,0-4.9-2.5-4.9-5.3
		C80.8,11.2,82.7,8.6,85.7,8.6 M86.2,17.2c1.7,0,2.9-1.5,2.9-3.2c0-1.7-1.2-3.3-2.9-3.3c-1.7,0-2.9,1.5-2.9,3.3
		C83.2,15.8,84.4,17.2,86.2,17.2"/>
	<path class="st0" d="M96,18.9h-2.4V0H96v10.2c0.5-0.9,1.6-1.7,3-1.7c3,0,4.2,1.9,4.2,4.8v5.4h-2.4v-5.4c0-2-0.9-2.9-2.3-2.9
		c-1.3,0-2.4,0.9-2.4,2.8V18.9z"/>
	<path class="st0" d="M104.7,13.9c0-2.8,1.8-5.3,5.3-5.3c3.6,0,5.4,2.5,5.4,5.3c0,2.8-1.8,5.3-5.4,5.3
		C106.5,19.2,104.7,16.7,104.7,13.9 M113,13.9c0-2.1-1.3-3.5-3-3.5c-1.6,0-2.9,1.4-2.9,3.5c0,2.2,1.3,3.6,2.9,3.6
		C111.7,17.5,113,16.1,113,13.9"/>
	<path class="st1" d="M16.2,7.9c-1.2,0-2.3,0.2-3.4,0.6c-2.6,1.1-4.6,3.2-5.6,5.8c-1.1,2.9-0.9,6.2,0.5,9.1C9.9,27.5,14,30,18.7,30
		c2.3,0,4.6-0.6,6.7-1.7c3.5-2.1,5.9-5.4,6.8-9.4c0.9-4.2-0.1-8.7-2.6-12.2C26.5,2.4,21.6,0,16.3,0c-6,0-11.4,3-14.5,8
		C1.5,8.5,1.2,9.1,0.9,9.7c0,0.1-0.1,0.4,0,0.5c0.1,0.1,0.3,0.1,0.4,0.1h0c0.3,0,0.5-0.3,0.9-0.8C4.1,7,6.2,5.1,8.7,3.8
		c2.2-1.1,4.6-1.7,7.1-1.7c5.8,0,10.8,3.2,13,8.2c1.3,3.2,1.3,6.8,0,9.9c-1.2,2.8-3.5,4.9-6.3,5.9c-1.1,0.4-2.2,0.5-3.3,0.5
		c-4.3,0-7.8-2.6-8.8-6.6c-0.4-2.1,0.1-4.4,1.4-6c0.8-0.9,2.1-2.1,4.2-2.1c1.3,0,2.7,0.7,3.5,1.6c0.6,0.7,0.8,1.6,0.6,2.4
		c-0.2,0.7-0.9,1.5-1.4,1.5c-0.2,0-0.3-0.1-0.5-0.2c-0.1-0.1-0.1-0.3-0.2-0.5c0-0.4-0.1-0.9-0.9-1.2c-0.1,0-0.3-0.1-0.5-0.1
		c-1.1,0-1.9,1-2,2.1c-0.1,1,0.2,1.9,0.8,2.7c0.8,0.9,2.2,1.5,3.6,1.5c0.1,0,0.2,0,0.4,0c1.7-0.2,3.1-1.1,4.1-2.5
		c1.1-1.6,1.4-3.8,0.9-5.9C23.1,10.1,19.9,7.9,16.2,7.9"/>
</g>
</svg>
