<?xml version="1.0" encoding="utf-8"?>
<!-- Generator: Adobe Illustrator 19.2.1, SVG Export Plug-In . SVG Version: 6.00 Build 0)  -->
<svg version="1.1" id="Layer_1" xmlns="http://www.w3.org/2000/svg" xmlns:xlink="http://www.w3.org/1999/xlink" x="0px" y="0px"
	 width="40px" height="60px" viewBox="0 0 40 60" style="enable-background:new 0 0 40 60;" xml:space="preserve">
<style type="text/css">
	.st0{fill:#40AEA9;}
	.st1{fill:#EAB15E;}
	.st2{fill:#EE5257;}
	.st3{fill:#FFFFFF;}
</style>
<g>
	<path class="st0" d="M13.7,10c-0.1,0-0.3-0.1-0.4-0.2L10,6.3L6.6,9.8C6.4,10,6.1,10,5.9,9.8c-0.2-0.2-0.2-0.5,0-0.7l3.6-3.8
		C9.6,5.2,9.8,5.1,10,5.1c0,0,0,0,0,0c0.2,0,0.4,0.1,0.5,0.3l3.6,3.8c0.2,0.2,0.2,0.5,0,0.7C14,9.9,13.9,10,13.7,10z"/>
	<path class="st0" d="M10,14.9c-0.3,0-0.5-0.2-0.5-0.5V5.7c0-0.3,0.2-0.5,0.5-0.5s0.5,0.2,0.5,0.5v8.7C10.5,14.7,10.3,14.9,10,14.9z
		"/>
</g>
<g>
	<path class="st1" d="M10.5,34.2c-0.1,0-0.3-0.1-0.4-0.2c-0.2-0.2-0.2-0.5,0-0.7l3.5-3.4l-3.5-3.4c-0.2-0.2-0.2-0.5,0-0.7
		c0.2-0.2,0.5-0.2,0.7,0l3.8,3.6c0.2,0.1,0.3,0.3,0.3,0.5c0,0.2-0.1,0.4-0.3,0.5l-3.8,3.6C10.8,34.2,10.6,34.2,10.5,34.2z
		 M14.1,30.3L14.1,30.3L14.1,30.3z"/>
	<path class="st1" d="M14.3,30.5H5.6c-0.3,0-0.5-0.2-0.5-0.5s0.2-0.5,0.5-0.5h8.7c0.3,0,0.5,0.2,0.5,0.5S14.6,30.5,14.3,30.5z"/>
</g>
<g>
	<path class="st2" d="M10,54.9C10,54.9,10,54.9,10,54.9c-0.2,0-0.4-0.1-0.5-0.3l-3.6-3.8c-0.2-0.2-0.2-0.5,0-0.7
		c0.2-0.2,0.5-0.2,0.7,0l3.4,3.5l3.4-3.5c0.2-0.2,0.5-0.2,0.7,0c0.2,0.2,0.2,0.5,0,0.7l-3.6,3.8C10.4,54.8,10.2,54.9,10,54.9z"/>
	<path class="st2" d="M10,54.8c-0.3,0-0.5-0.2-0.5-0.5v-8.7c0-0.3,0.2-0.5,0.5-0.5s0.5,0.2,0.5,0.5v8.7C10.5,54.6,10.3,54.8,10,54.8
		z"/>
</g>
<g>
	<path class="st3" d="M30.5,34.2c-0.1,0-0.3-0.1-0.4-0.2c-0.2-0.2-0.2-0.5,0-0.7l3.5-3.4l-3.5-3.4c-0.2-0.2-0.2-0.5,0-0.7
		s0.5-0.2,0.7,0l3.8,3.6c0.2,0.1,0.3,0.3,0.3,0.5c0,0.2-0.1,0.4-0.3,0.5l-3.8,3.6C30.8,34.2,30.6,34.2,30.5,34.2z M34.1,30.3
		L34.1,30.3L34.1,30.3z"/>
	<path class="st3" d="M34.3,30.5h-8.7c-0.3,0-0.5-0.2-0.5-0.5s0.2-0.5,0.5-0.5h8.7c0.3,0,0.5,0.2,0.5,0.5S34.6,30.5,34.3,30.5z"/>
</g>
<g>
	<path class="st3" d="M30,54.9c-0.2,0-0.4-0.1-0.5-0.3l-3.6-3.8c-0.2-0.2-0.2-0.5,0-0.7c0.2-0.2,0.5-0.2,0.7,0l3.4,3.5l3.4-3.5
		c0.2-0.2,0.5-0.2,0.7,0c0.2,0.2,0.2,0.5,0,0.7l-3.6,3.8C30.4,54.8,30.2,54.9,30,54.9z"/>
	<path class="st3" d="M30,54.8c-0.3,0-0.5-0.2-0.5-0.5v-8.7c0-0.3,0.2-0.5,0.5-0.5s0.5,0.2,0.5,0.5v8.7C30.5,54.6,30.3,54.8,30,54.8
		z"/>
</g>
<g>
	<path class="st3" d="M33.7,10c-0.1,0-0.3-0.1-0.4-0.2L30,6.3l-3.4,3.5c-0.2,0.2-0.5,0.2-0.7,0c-0.2-0.2-0.2-0.5,0-0.7l3.6-3.8
		c0.2-0.3,0.8-0.3,1,0l3.6,3.8c0.2,0.2,0.2,0.5,0,0.7C34,9.9,33.9,10,33.7,10z"/>
	<path class="st3" d="M30,14.9c-0.3,0-0.5-0.2-0.5-0.5V5.7c0-0.3,0.2-0.5,0.5-0.5s0.5,0.2,0.5,0.5v8.7C30.5,14.7,30.3,14.9,30,14.9z
		"/>
</g>
</svg>
