<?xml version="1.0" encoding="utf-8"?>
<!-- Generator: Adobe Illustrator 19.2.1, SVG Export Plug-In . SVG Version: 6.00 Build 0)  -->
<svg version="1.1" id="Layer_1" xmlns="http://www.w3.org/2000/svg" xmlns:xlink="http://www.w3.org/1999/xlink" x="0px" y="0px"
	 width="10px" height="56px" viewBox="0 0 10 56" style="enable-background:new 0 0 10 56;" xml:space="preserve">
<style type="text/css">
	.st0{fill:#005DA6;}
	.st1{fill:#CCCCCC;}
</style>
<path class="st0" d="M10,18.3l-2.8-2.8C7.7,14.8,8,13.9,8,13c0-2.2-1.8-4-4-4s-4,1.8-4,4s1.8,4,4,4c0.9,0,1.8-0.3,2.5-0.8L9.3,19
	L10,18.3z M4,16c-1.7,0-3-1.3-3-3s1.3-3,3-3s3,1.3,3,3S5.7,16,4,16z"/>
<path class="st1" d="M10,46.3l-2.8-2.8C7.7,42.8,8,41.9,8,41c0-2.2-1.8-4-4-4s-4,1.8-4,4s1.8,4,4,4c0.9,0,1.8-0.3,2.5-0.8L9.3,47
	L10,46.3z M4,44c-1.7,0-3-1.3-3-3s1.3-3,3-3s3,1.3,3,3S5.7,44,4,44z"/>
</svg>
